<svg width="100%" height="100%" viewBox="0 0 600 600" fill="none" xmlns="http://www.w3.org/2000/svg">
<g clip-path="url(#clip0_14_925)">
<path d="M478 116H125V487H478V116Z" fill="white"/>
<path d="M320.572 229.333H281.117V493.188H320.572V229.333Z" fill="#836EF9"/>
<path d="M202.207 281.117V320.572H399.482V281.117H202.207Z" fill="#836EF9"/>
<path d="M245.122 217.173L217.174 245.121L356.912 384.86L384.86 356.912L245.122 217.173Z" fill="#836EF9"/>
<path d="M384.86 245.122L356.912 217.174L217.174 356.912L245.121 384.86L384.86 245.122Z" fill="#836EF9"/>
<path d="M320.572 202.207H281.117V399.482H320.572V202.207Z" fill="#836EF9"/>
<path d="M300.002 0C213.368 0 0 213.361 0 299.998C0 386.636 213.368 600 300.002 600C386.636 600 600.007 386.632 600.007 299.998C600.007 213.364 386.639 0 300.002 0ZM253.251 471.548C216.719 461.593 118.498 289.78 128.454 253.248C138.411 216.714 310.222 118.496 346.754 128.452C383.288 138.408 481.509 310.216 471.553 346.751C461.596 383.285 289.784 481.504 253.251 471.548Z" fill="#836EF9"/>
</g>
<defs>
<clipPath id="clip0_14_925">
<rect width="600" height="600" fill="white"/>
</clipPath>
</defs>
</svg>
