<?xml version="1.0" standalone="no"?>
<!DOCTYPE svg PUBLIC "-//W3C//DTD SVG 20010904//EN"
 "http://www.w3.org/TR/2001/REC-SVG-20010904/DTD/svg10.dtd">
<svg version="1.0" xmlns="http://www.w3.org/2000/svg"
 width="600.000000pt" height="600.000000pt" viewBox="0 0 600.000000 600.000000"
 preserveAspectRatio="xMidYMid meet">
<metadata>
Created by potrace 1.14, written by Peter Selinger 2001-2017
</metadata>
<g transform="translate(0.000000,600.000000) scale(0.100000,-0.100000)"
fill="#000000" stroke="none">
<path d="M2881 5989 c-335 -60 -875 -401 -1430 -903 -157 -142 -483 -473 -618
-626 -479 -547 -782 -1051 -825 -1376 -22 -161 18 -328 137 -569 200 -406 578
-889 1082 -1385 388 -383 731 -659 1076 -868 336 -203 577 -282 781 -254 310
41 792 325 1316 773 177 152 618 588 767 759 475 544 774 1037 824 1360 6 43
9 108 5 152 -32 389 -458 1042 -1116 1712 -629 640 -1250 1085 -1680 1206 -87
24 -240 33 -319 19z m662 -1311 c348 -231 1063 -1441 1167 -1975 7 -34 11 -91
8 -126 -3 -54 -10 -74 -40 -120 -142 -213 -690 -599 -1260 -888 -86 -43 -168
-83 -183 -89 l-25 -10 0 523 0 522 180 -180 180 -180 137 138 138 137 -180
180 -180 180 253 0 252 0 0 200 0 200 -252 0 -253 0 180 180 180 180 -138 137
-137 138 -180 -180 -180 -179 -2 254 -3 255 -197 3 -198 2 0 -257 0 -258 -180
180 -180 180 -137 -138 -138 -137 180 -180 180 -180 -258 0 -257 0 2 -197 3
-198 255 -3 254 -2 -179 -180 -180 -180 138 -137 137 -138 180 180 180 180 0
-601 0 -601 -84 -18 c-125 -26 -200 -19 -269 27 -348 231 -1063 1442 -1167
1975 -7 34 -11 91 -8 126 3 54 10 74 40 120 225 339 1361 1018 1943 1161 34 9
95 14 141 13 75 -2 85 -5 137 -39z"/>
</g>
</svg>
