<?xml version="1.0" standalone="no"?>
<!DOCTYPE svg PUBLIC "-//W3C//DTD SVG 20010904//EN"
 "http://www.w3.org/TR/2001/REC-SVG-20010904/DTD/svg10.dtd">
<svg version="1.0" xmlns="http://www.w3.org/2000/svg"
 width="512.000000pt" height="512.000000pt" viewBox="0 0 512.000000 512.000000"
 preserveAspectRatio="xMidYMid meet">
<metadata>
Created by potrace 1.14, written by Peter Selinger 2001-2017
</metadata>
<g transform="translate(0.000000,512.000000) scale(0.100000,-0.100000)"
fill="#000000" stroke="none">
<path d="M2327 5110 c-493 -52 -926 -220 -1315 -512 -119 -89 -339 -302 -437
-423 -234 -288 -411 -643 -500 -1005 -53 -216 -70 -364 -70 -610 0 -422 81
-766 266 -1139 134 -272 284 -475 510 -696 388 -378 859 -612 1404 -697 201
-31 549 -31 750 0 434 68 823 232 1173 494 119 89 339 302 437 423 287 353
475 780 547 1240 31 201 31 549 0 750 -72 460 -260 887 -547 1240 -98 121
-318 334 -437 423 -350 262 -746 429 -1171 493 -153 23 -474 33 -610 19z m404
-700 c355 -36 686 -166 964 -379 146 -111 324 -306 428 -466 114 -178 214
-422 256 -630 108 -528 -19 -1080 -348 -1510 -69 -91 -216 -239 -311 -315
-267 -213 -575 -343 -927 -394 l-43 -6 0 690 c0 379 3 690 8 690 4 0 84 -76
177 -170 l170 -170 132 132 133 133 -170 170 c-93 94 -170 174 -170 178 0 4
110 7 245 7 l245 0 0 190 0 190 -245 0 c-135 0 -245 3 -245 7 0 4 77 84 170
178 l170 170 -133 133 -132 132 -170 -170 c-93 -94 -173 -170 -177 -170 -5 0
-8 110 -8 245 l0 245 -190 0 -190 0 0 -245 c0 -135 -3 -245 -8 -245 -4 0 -84
76 -177 170 l-170 170 -132 -132 -133 -133 170 -170 c93 -94 170 -174 170
-178 0 -4 -110 -7 -245 -7 l-245 0 0 -190 0 -190 245 0 c135 0 245 -3 245 -7
0 -4 -77 -84 -170 -178 l-170 -170 133 -133 132 -132 170 170 c93 94 173 170
177 170 5 0 8 -311 8 -690 l0 -690 -42 6 c-339 49 -644 175 -903 373 -146 111
-324 306 -428 466 -114 178 -214 422 -256 630 -108 528 19 1080 348 1510 69
91 216 239 311 315 379 301 864 447 1331 400z"/>
</g>
</svg>
